<svg width="37" height="38" viewBox="0 0 37 38" fill="none" xmlns="http://www.w3.org/2000/svg">
<g id="Frame">
<path id="Vector" d="M4.03682 22.6634V5.79707C4.03682 4.92186 4.37592 4.08249 4.97953 3.46362C5.58314 2.84475 6.4018 2.49707 7.25543 2.49707H29.142C29.9957 2.49707 30.8143 2.84475 31.4179 3.46362C32.0215 4.08249 32.3606 4.92186 32.3606 5.79707V22.6634M4.03682 22.6634H32.3606M4.03682 22.6634L1.65504 31.2995C1.51977 31.7902 1.49724 32.3063 1.58922 32.8074C1.6812 33.3085 1.88519 33.781 2.18519 34.1877C2.48518 34.5944 2.87301 34.9242 3.31825 35.1514C3.76349 35.3786 4.25402 35.4969 4.75135 35.4971H31.6461C32.1434 35.4969 32.634 35.3786 33.0792 35.1514C33.5244 34.9242 33.9123 34.5944 34.2123 34.1877C34.5123 33.781 34.7163 33.3085 34.8082 32.8074C34.9002 32.3063 34.8777 31.7902 34.7424 31.2995L32.3606 22.6634" stroke="#085C60" stroke-width="2.5"/>
<path id="Vector_2" d="M16.5894 30.547H19.808" stroke="#085C60" stroke-width="2.5" stroke-linecap="round" stroke-linejoin="round"/>
</g>
</svg>
