<svg width="25" height="25" viewBox="0 0 25 25" fill="none" xmlns="http://www.w3.org/2000/svg">
<g id="Frame" clip-path="url(#clip0_1_1483)">
<path id="Vector" fill-rule="evenodd" clip-rule="evenodd" d="M5.37923 0.859375C2.43371 0.859375 0.0458984 3.24719 0.0458984 6.19271V19.526C0.0458984 22.4715 2.43371 24.8594 5.37923 24.8594H12.0519V14.8594H9.37923V11.4131L12.0519 11.4119L12.0479 9.38188C12.0479 6.57063 12.8586 4.85938 16.3791 4.85938H20.0114V8.30687H17.4783C16.1067 8.30687 16.0416 8.78812 16.0416 9.68688L16.0363 11.4119H20.0459L19.6578 14.8582L16.039 14.8594L16.0363 24.8594H18.7126C21.658 24.8594 24.0459 22.4715 24.0459 19.526V6.19271C24.0459 3.24719 21.658 0.859375 18.7126 0.859375H5.37923Z" fill="#085C60"/>
</g>
<defs>
<clipPath id="clip0_1_1483">
<rect width="24" height="24" fill="white" transform="translate(0.0458984 0.859375)"/>
</clipPath>
</defs>
</svg>
