<svg width="25" height="25" viewBox="0 0 25 25" fill="none" xmlns="http://www.w3.org/2000/svg">
<g id="Frame" clip-path="url(#clip0_1_1487)">
<path id="Vector" fill-rule="evenodd" clip-rule="evenodd" d="M5.37923 0.859375C2.43371 0.859375 0.0458984 3.24719 0.0458984 6.19271V19.526C0.0458984 22.4715 2.43371 24.8594 5.37923 24.8594H18.7126C21.658 24.8594 24.0459 22.4715 24.0459 19.526V6.19271C24.0459 3.24719 21.658 0.859375 18.7126 0.859375H5.37923ZM7.6819 19.526V9.62518H4.2439V19.526H7.6819ZM4.0459 6.56851C4.0459 5.59884 4.8169 4.85938 5.9839 4.85938C7.1609 4.85938 7.8899 5.59884 7.9009 6.56851C7.9109 7.51706 7.1609 8.27667 5.9629 8.27667H5.9419C4.7859 8.27667 4.0459 7.51706 4.0459 6.56851ZM13.0039 11.0341C13.455 10.356 14.2688 9.39499 16.0979 9.39499C18.3579 9.39499 20.0459 10.8135 20.0459 13.851V19.526H16.6179V14.2308C16.6179 12.9024 16.1179 11.9932 14.8799 11.9932C13.9299 11.9932 13.3689 12.6022 13.1179 13.1921C13.0359 13.4108 13.0039 13.7014 13.0039 14.0006V19.526H9.5769C9.6189 10.5545 9.5769 9.62518 9.5769 9.62518H13.0039V11.0341Z" fill="#085C60"/>
</g>
<defs>
<clipPath id="clip0_1_1487">
<rect width="24" height="24" fill="white" transform="translate(0.0458984 0.859375)"/>
</clipPath>
</defs>
</svg>
