<svg width="25" height="24" viewBox="0 0 25 24" fill="none" xmlns="http://www.w3.org/2000/svg">
<g id="carbon:location-filled">
<path id="Vector" d="M12.0335 1.5C9.84621 1.50258 7.74929 2.3726 6.20267 3.91922C4.65606 5.46584 3.78604 7.56276 3.78346 9.75C3.78084 11.5374 4.36469 13.2763 5.44546 14.7C5.44546 14.7 5.67046 14.9963 5.70721 15.039L12.0335 22.5L18.3627 15.0353C18.3957 14.9955 18.6215 14.7 18.6215 14.7L18.6222 14.6978C19.7024 13.2747 20.286 11.5366 20.2835 9.75C20.2809 7.56276 19.4109 5.46584 17.8642 3.91922C16.3176 2.3726 14.2207 1.50258 12.0335 1.5ZM12.0335 12.75C11.4401 12.75 10.8601 12.5741 10.3667 12.2444C9.8734 11.9148 9.48888 11.4462 9.26182 10.8981C9.03475 10.3499 8.97534 9.74667 9.0911 9.16473C9.20686 8.58279 9.49258 8.04824 9.91214 7.62868C10.3317 7.20912 10.8662 6.9234 11.4482 6.80764C12.0301 6.69189 12.6333 6.7513 13.1815 6.97836C13.7297 7.20542 14.1982 7.58994 14.5279 8.08329C14.8575 8.57664 15.0335 9.15666 15.0335 9.75C15.0325 10.5453 14.7161 11.3078 14.1537 11.8702C13.5913 12.4326 12.8288 12.749 12.0335 12.75Z" fill="white"/>
</g>
</svg>
