<svg width="26" height="37" viewBox="0 0 26 37" fill="none" xmlns="http://www.w3.org/2000/svg">
<g id="Frame">
<path id="Vector" d="M17.6086 15.8243L23.8219 1.89001M9.34861 16.1328L2.15527 1.89001M15.0903 15.1692L8.54694 1.89001M17.7553 1.89001L16.0219 6.01501M3.82194 24.99C3.82194 27.6157 4.87551 30.1338 6.75087 31.9904C8.62624 33.847 11.1698 34.89 13.8219 34.89C16.4741 34.89 19.0176 33.847 20.893 31.9904C22.7684 30.1338 23.8219 27.6157 23.8219 24.99C23.8219 22.3644 22.7684 19.8463 20.893 17.9897C19.0176 16.1331 16.4741 15.09 13.8219 15.09C11.1698 15.09 8.62624 16.1331 6.75087 17.9897C4.87551 19.8463 3.82194 22.3644 3.82194 24.99Z" stroke="#085C60" stroke-width="2.5" stroke-linecap="round" stroke-linejoin="round"/>
<path id="Vector_2" d="M11.3218 23.34L14.6551 20.865V29.115" stroke="#085C60" stroke-width="2.5" stroke-linecap="round" stroke-linejoin="round"/>
</g>
</svg>
