<svg width="31" height="37" viewBox="0 0 31 37" fill="none" xmlns="http://www.w3.org/2000/svg">
<g id="Frame">
<path id="Vector" d="M1.96875 24.6206V3.21384C1.96875 2.95035 2.07222 2.69765 2.25641 2.51133C2.44059 2.32501 2.6904 2.22034 2.95087 2.22034H27.1766C27.437 2.22034 27.6869 2.32501 27.871 2.51133C28.0552 2.69765 28.1587 2.95035 28.1587 3.21384V24.6206C28.1588 25.8507 27.8203 27.0565 27.1811 28.1029C26.5418 29.1494 25.6272 29.995 24.5396 30.5452L15.504 35.1153C15.3676 35.1844 15.2171 35.2203 15.0645 35.2203C14.912 35.2203 14.7615 35.1844 14.625 35.1153L5.58951 30.5452C4.5016 29.9953 3.5866 29.1497 2.94708 28.1032C2.30756 27.0568 1.96879 25.8509 1.96875 24.6206Z" stroke="#085C60" stroke-width="2.5" stroke-linecap="round" stroke-linejoin="round"/>
</g>
</svg>
