<svg width="25" height="25" viewBox="0 0 25 25" fill="none" xmlns="http://www.w3.org/2000/svg">
<g id="Frame" clip-path="url(#clip0_1_1495)">
<path id="Vector" fill-rule="evenodd" clip-rule="evenodd" d="M5.37923 0.859375C2.43371 0.859375 0.0458984 3.24719 0.0458984 6.19271V19.526C0.0458984 22.4715 2.43371 24.8594 5.37923 24.8594H18.7126C21.658 24.8594 24.0459 22.4715 24.0459 19.526V6.19271C24.0459 3.24719 21.658 0.859375 18.7126 0.859375H5.37923ZM18.412 9.95408C18.412 9.8073 18.412 9.66147 18.4016 9.51566C19.041 9.03431 19.5968 8.44604 20.0459 7.77548C19.4452 8.04503 18.8084 8.22048 18.157 8.29599C18.8418 7.87943 19.3547 7.22035 19.5988 6.44283C18.9562 6.83488 18.252 7.10967 17.5179 7.25498C16.9184 6.5983 16.0656 6.19271 15.1216 6.19271C14.6911 6.19257 14.2647 6.27948 13.8668 6.44847C13.4691 6.61744 13.1076 6.86517 12.8031 7.17751C12.4986 7.48985 12.257 7.86069 12.0922 8.26883C11.9274 8.67697 11.8426 9.11443 11.8426 9.55622C11.8437 9.81563 11.8711 10.0742 11.9245 10.3278C10.6199 10.2602 9.34369 9.91178 8.17882 9.30519C7.01397 8.6986 5.98647 7.84741 5.16307 6.8069C4.74028 7.5481 4.60985 8.42718 4.7985 9.2639C4.98714 10.1006 5.48058 10.8316 6.17766 11.307C5.63931 11.2858 5.13202 11.1293 4.69531 10.8802V10.9217C4.69462 11.699 4.95615 12.4525 5.4355 13.0544C5.91486 13.6562 6.58247 14.0693 7.32495 14.2234C7.05107 14.2958 6.75648 14.3374 6.46095 14.3374C6.24919 14.3374 6.0459 14.316 5.84355 14.2852C6.05371 14.9535 6.46215 15.5378 7.01175 15.9562C7.56135 16.3747 8.22466 16.6066 8.90895 16.6192C7.7479 17.5538 6.31402 18.0599 4.83837 18.0562C4.56449 18.0562 4.31037 18.0466 4.0459 18.0156C5.54791 19.0062 7.29669 19.5306 9.08214 19.526C15.1123 19.526 18.412 14.4011 18.412 9.95408Z" fill="#085C60"/>
</g>
<defs>
<clipPath id="clip0_1_1495">
<rect width="24" height="24" fill="white" transform="translate(0.0458984 0.859375)"/>
</clipPath>
</defs>
</svg>
