<svg width="25" height="25" viewBox="0 0 25 25" fill="none" xmlns="http://www.w3.org/2000/svg">
<g id="Frame" clip-path="url(#clip0_1_1491)">
<path id="Vector" fill-rule="evenodd" clip-rule="evenodd" d="M5.37923 0.859375C2.43371 0.859375 0.0458984 3.24719 0.0458984 6.19271V19.526C0.0458984 22.4715 2.43371 24.8594 5.37923 24.8594H18.7126C21.658 24.8594 24.0459 22.4715 24.0459 19.526V6.19271C24.0459 3.24719 21.658 0.859375 18.7126 0.859375H5.37923ZM6.20926 7.72264C9.91903 7.43003 14.2378 7.49287 17.8806 7.72264C19.1855 7.76767 19.8214 9.02724 19.9094 10.0261C20.0914 12.1251 20.0914 13.4494 19.9094 15.5474C19.8224 16.5463 19.0155 17.8227 17.8815 18.0075C14.2607 18.2702 9.96403 18.2382 6.21026 18.0075C5.03834 17.8687 4.26938 16.5463 4.18239 15.5474C4.00041 13.4494 4.00041 12.2555 4.18239 10.1574C4.26838 9.15855 5.05734 7.84363 6.20926 7.72264ZM10.045 10.1349V15.5136L15.0447 12.8247L10.045 10.1349Z" fill="#085C60"/>
</g>
<defs>
<clipPath id="clip0_1_1491">
<rect width="24" height="24" fill="white" transform="translate(0.0458984 0.859375)"/>
</clipPath>
</defs>
</svg>
